<svg id="Ebene_1" data-name="Ebene 1" xmlns="http://www.w3.org/2000/svg" viewBox="0 0 510.47 159.1"><defs><style>.cls-1{fill:#1d1d1b;}</style></defs><title>FondsDaKu_Logo_sw</title><path class="cls-1" d="M493.93,101.82V88.5h17.81a.64.64,0,0,0,.7-.71v-5a.64.64,0,0,0-.7-.71H493.93V70h21.2a.78.78,0,0,0,.83-.58l1.41-5.12c.13-.45-.13-.77-.64-.77H487.4a.64.64,0,0,0-.7.7v43.37a.64.64,0,0,0,.7.7h29.34a.64.64,0,0,0,.7-.7v-5.06a.64.64,0,0,0-.7-.7ZM477.85,85.93c0-13.77-7.37-22.42-19.54-22.42h-15a.64.64,0,0,0-.71.7v43.37a.64.64,0,0,0,.71.7h15c12,0,19.54-8.78,19.54-22.36Zm-7.43,0c0,10.06-4.55,15.89-12.11,15.89h-8.46V70h8.46c7.56,0,12.11,5.83,12.11,16Zm-38.3,21.65V64.22a.64.64,0,0,0-.71-.7h-5.83a.64.64,0,0,0-.7.7V88.5a53.55,53.55,0,0,0,.51,8.78c.13.77-.51,1.09-.83.26-.64-1.28-1.41-2.75-2.24-4.29L408.61,70.62a71,71,0,0,1-3.4-6.6.92.92,0,0,0-.83-.51h-7.69a.64.64,0,0,0-.7.7v43.37a.64.64,0,0,0,.7.7h5.89a.64.64,0,0,0,.7-.7V83.43a63.07,63.07,0,0,0-.58-8.9c-.13-.71.51-1,.9-.26.64,1.35,1.41,2.82,2.24,4.29l13.71,22.61a57.78,57.78,0,0,1,3.33,6.6.92.92,0,0,0,.83.51h7.69a.64.64,0,0,0,.71-.7Zm-44.84,0v-5.06a.64.64,0,0,0-.71-.7H363.77V88.5h17.81a.64.64,0,0,0,.7-.71v-5a.64.64,0,0,0-.7-.71H363.77V70H385a.78.78,0,0,0,.83-.58l1.41-5.12c.13-.45-.13-.77-.64-.77H357.24a.64.64,0,0,0-.7.7v43.37a.64.64,0,0,0,.7.7h29.34a.64.64,0,0,0,.71-.7Zm-39.59,0v-5.06a.64.64,0,0,0-.7-.7H326.68V64.22a.64.64,0,0,0-.7-.7h-5.83a.64.64,0,0,0-.7.7v43.37a.64.64,0,0,0,.7.7H347a.64.64,0,0,0,.7-.7Zm-28.75,14.6c.19-.38,0-.7-.45-.9l-3.72-1.22a32,32,0,0,0-10-1.6c-9.22,0-15.12,4.42-15.12,12.11,0,6.21,2.82,9.55,10.7,12.49l7.18,2.69c3.59,1.35,6.34,3.2,6.34,6,0,4.36-4,6.15-8.71,6.15a31.24,31.24,0,0,1-10.06-1.67l-3.52-1.15c-.38-.19-.7,0-.9.39L289,160.43c-.19.38,0,.7.45.9l3.33,1.09a35.48,35.48,0,0,0,12.36,2.18c9.93,0,16.08-4.55,16.08-12.81,0-6.41-3.4-9.54-10.89-12.36l-7.11-2.63c-4.61-1.73-6.21-3.59-6.21-6.21,0-3.33,3.14-5.51,7.75-5.51a26.72,26.72,0,0,1,8.14,1.35l3.4,1.09a.72.72,0,0,0,.9-.45l1.73-4.87Zm-8.34-14.6v-5.06a.64.64,0,0,0-.7-.7H289.59V64.22a.64.64,0,0,0-.7-.7h-5.83a.64.64,0,0,0-.7.7v43.37a.64.64,0,0,0,.7.7H309.9a.64.64,0,0,0,.7-.7ZM280,163.18V119.81a.64.64,0,0,0-.7-.7h-5.83a.64.64,0,0,0-.71.7v24.28a53.43,53.43,0,0,0,.51,8.78c.13.77-.51,1.09-.83.26-.64-1.28-1.41-2.75-2.24-4.29l-13.71-22.61a71,71,0,0,1-3.39-6.6.92.92,0,0,0-.83-.51h-7.69a.64.64,0,0,0-.7.7v43.37a.64.64,0,0,0,.7.7h5.89a.64.64,0,0,0,.7-.7V139a63.08,63.08,0,0,0-.58-8.9c-.13-.7.51-1,.9-.26.64,1.35,1.41,2.82,2.24,4.29l13.71,22.61a57.77,57.77,0,0,1,3.33,6.6.92.92,0,0,0,.83.51h7.69a.64.64,0,0,0,.7-.7Zm-6.35-55.6v-5.06a.64.64,0,0,0-.7-.7H250.13V88.5h17.81a.64.64,0,0,0,.7-.71v-5a.64.64,0,0,0-.7-.71H250.13V70h21.2a.78.78,0,0,0,.83-.58l1.41-5.12c.13-.45-.13-.77-.64-.77H243.6a.64.64,0,0,0-.71.7v43.37a.64.64,0,0,0,.71.7h29.34a.64.64,0,0,0,.7-.7ZM234.82,69.28V64.22a.64.64,0,0,0-.7-.7H199.59a.64.64,0,0,0-.7.7v5.06a.64.64,0,0,0,.7.7h13.58V99.42h0v2.91a.64.64,0,0,0,.71.7h5.89a.64.64,0,0,0,.71-.7v-.23h0V70h13.64a.64.64,0,0,0,.7-.7ZM189.91,17.6c0-3.33,3.14-5.51,7.75-5.51a26.72,26.72,0,0,1,8.14,1.35l3.4,1.09a.72.72,0,0,0,.9-.45l1.73-4.87c.19-.39,0-.71-.45-.9l-3.71-1.22a32,32,0,0,0-10-1.6c-9.23,0-15.12,4.42-15.12,12.11,0,6.21,2.82,9.54,10.7,12.49l7.17,2.69c3.59,1.35,6.34,3.2,6.34,6,0,4.36-4,6.15-8.71,6.15A31.24,31.24,0,0,1,188,43.28l-3.52-1.15c-.38-.19-.7,0-.9.38l-1.67,4.93c-.19.38,0,.7.45.9l3.33,1.09A35.46,35.46,0,0,0,198,51.61c9.93,0,16.08-4.55,16.08-12.81,0-6.41-3.39-9.54-10.89-12.36l-7.11-2.63c-4.61-1.73-6.21-3.59-6.21-6.21Zm-2.61,46.88a32,32,0,0,0-10-1.6c-9.22,0-15.12,4.42-15.12,12.11,0,6.21,2.82,9.54,10.7,12.49l7.18,2.69c3.59,1.35,6.34,3.2,6.34,6,0,4.36-4,6.15-8.71,6.15a31.24,31.24,0,0,1-10.06-1.67l-3.52-1.15c-.38-.19-.7,0-.9.38l-1.67,4.93c-.19.38,0,.7.45.9l3.33,1.09A35.48,35.48,0,0,0,177.69,109c9.93,0,16.08-4.55,16.08-12.81,0-6.41-3.39-9.54-10.89-12.36l-7.11-2.63c-4.61-1.73-6.21-3.59-6.21-6.21,0-3.33,3.14-5.51,7.75-5.51a26.73,26.73,0,0,1,8.14,1.35l3.39,1.09a.72.72,0,0,0,.9-.45l1.73-4.87c.19-.38,0-.7-.45-.9l-3.72-1.22ZM174.85,28.55c0-13.77-7.37-22.42-19.54-22.42h-15a.64.64,0,0,0-.7.7V50.2a.64.64,0,0,0,.7.7h15c12,0,19.54-8.78,19.54-22.36Zm-7.43,0c0,10.06-4.55,15.89-12.11,15.89h-8.46V12.6h8.46c7.56,0,12.11,5.83,12.11,16Zm-30,35h-17.3a.64.64,0,0,0-.7.7v43.37a.64.64,0,0,0,.7.7H126a.64.64,0,0,0,.7-.7V90.8h4.61c6.73,0,9.67,2.95,12,8.71l3.46,8.26a.92.92,0,0,0,.83.51h6.21c.51,0,.77-.32.58-.83l-4.55-10.89c-1.35-2.95-3.14-5.83-6.15-7.43-.77-.45-.77-.77.06-1.15,4.93-1.79,8.52-5.7,8.52-11.53,0-8.07-5.51-12.94-14.86-12.94ZM145,76.9c0,4.87-3.52,7.49-10.12,7.49H126.7V70h10.76c4.61,0,7.49,2.69,7.49,6.92ZM129.12,50.2V6.83a.64.64,0,0,0-.7-.7h-5.83a.64.64,0,0,0-.7.7V31.11a53.56,53.56,0,0,0,.51,8.78c.13.77-.51,1.09-.83.26-.64-1.28-1.41-2.76-2.24-4.29L105.61,13.24a70.89,70.89,0,0,1-3.4-6.6.92.92,0,0,0-.83-.51H93.69a.64.64,0,0,0-.71.7V50.2a.64.64,0,0,0,.71.7h5.89a.64.64,0,0,0,.7-.7V26.05a63.08,63.08,0,0,0-.58-8.9c-.13-.7.51-1,.9-.26.64,1.35,1.41,2.82,2.24,4.29L116.56,43.8a57.86,57.86,0,0,1,3.33,6.6.92.92,0,0,0,.83.51h7.69a.64.64,0,0,0,.7-.7ZM94.67,63.51H86.79a.68.68,0,0,0-.77.64,149.06,149.06,0,0,1-4.93,15.18l-11,28.12c-.19.51,0,.83.58.83h6.15a.75.75,0,0,0,.77-.58l3.14-8h20.11l3.14,8a.75.75,0,0,0,.77.58h6.15c.58,0,.77-.32.58-.83l-11-28.12c-1.92-5.12-3.65-10.18-5-15.24a.67.67,0,0,0-.77-.58ZM91.27,73a89.77,89.77,0,0,0,3.65,11.85l3.4,8.39H83.2l3.33-8.39A84.52,84.52,0,0,0,90.25,73c.13-.7.83-.7,1,0ZM84.21,28.49c0-14.16-7.43-23-19.47-23s-19.47,8.84-19.47,23,7.37,23.13,19.47,23.13,19.47-8.9,19.47-23.13Zm-7.43,0c0,10.25-4.48,16.46-12,16.46S52.63,38.74,52.63,28.49s4.48-16.4,12.11-16.4,12,6.09,12,16.4ZM37.49,50.2V6.83a.64.64,0,0,0-.71-.7H7.64c-.51,0-.77.32-.64.77L8.41,12a.78.78,0,0,0,.83.58h21V26.5H12a.64.64,0,0,0-.7.7v5.06a.64.64,0,0,0,.7.7H30.25V50.2a.64.64,0,0,0,.71.7h5.83a.64.64,0,0,0,.71-.7Zm-7.27,14v43.37a.64.64,0,0,0,.71.7h15c12,0,19.54-8.78,19.54-22.36,0-13.77-7.37-22.42-19.54-22.42h-15a.64.64,0,0,0-.71.7ZM37.46,70h8.46C53.48,70,58,75.81,58,85.93s-4.55,15.89-12.11,15.89H37.46V70Zm119.35,49.83v43.37a.64.64,0,0,0,.7.7h5.83a.64.64,0,0,0,.7-.7V144.09h1.47c4.74,0,9.16,4,12.17,9.1L184,163.44a1,1,0,0,0,.9.45h6.47c.58,0,.83-.38.51-.83l-8-13.13c-2.5-4.1-5.64-7.17-9.35-8.78-.51-.19-.45-.58,0-.77a19.54,19.54,0,0,0,8.9-8.07l7.5-12.36c.32-.45.06-.83-.45-.83H184.1a1,1,0,0,0-.9.45l-6,9.67c-2.82,4.61-7.17,8.46-11.79,8.46h-1.41V119.81a.64.64,0,0,0-.7-.7h-5.83a.64.64,0,0,0-.7.7Zm70.65-4.16v-5.06c0-.45-.2-.7-.54-.7H206.79c-.34,0-.54.26-.54.7v5.06c0,.45.2.7.54.7h20.13c.34,0,.54-.26.54-.7Zm-27.92,8.24v22c0,11.85,6.34,18.71,17.23,18.71S234,157.74,234,145.89v-22a.64.64,0,0,0-.7-.71h-5.89a.64.64,0,0,0-.7.71v22c0,7.69-3.65,12-9.93,12s-10-4.36-10-12v-22a.64.64,0,0,0-.7-.71h-5.83a.64.64,0,0,0-.7.71Zm126.83-4.08v5.06a.64.64,0,0,0,.7.7h13.58v37.6a.64.64,0,0,0,.71.7h5.89a.64.64,0,0,0,.7-.7v-37.6H361.6a.64.64,0,0,0,.71-.7v-5.06a.64.64,0,0,0-.71-.7H327.08a.64.64,0,0,0-.7.7Zm44,0v43.37a.64.64,0,0,0,.7.7h29.34a.64.64,0,0,0,.71-.7v-5.06a.64.64,0,0,0-.71-.71h-22.8V144.09h17.81a.64.64,0,0,0,.71-.71v-5a.64.64,0,0,0-.71-.7H377.62V125.58h21.2a.78.78,0,0,0,.83-.58l1.41-5.12c.13-.45-.13-.77-.64-.77H371.09a.64.64,0,0,0-.7.7Z" transform="translate(-6.97 -5.49)"/></svg>