<?xml version="1.0" encoding="utf-8"?>
<svg version="1.1" xmlns="http://www.w3.org/2000/svg" viewBox="0 20 478.421 140">
<linearGradient id="SVGID_1_" gradientUnits="userSpaceOnUse" x1="242.3745" y1="126.75" x2="469.958" y2="126.75">
  <stop offset="0.0591" style="stop-color:#2C2CBB"/>
  <stop offset="1" style="stop-color:#2C2CBB;stop-opacity:0"/>
</linearGradient>
<polygon class="tanzblick-dash" fill="url(#SVGID_1_)" points="253.958,122.4 246.958,122.4 240.375,131.4
  253.958,131.0 469.958,131.0 469.958,122.4"/>
<g class="tanzblick-tanz" fill="#2C2CBB">
  <path d="M40.759,52.053c0.072-0.223,0.17-0.396,0.292-0.521c0.048-0.147,0.147-0.322,0.292-0.521
  c0.417-0.275,1.02-0.612,1.808-1.015c0.787-0.401,1.256-0.578,1.405-0.53l22.401,7.279c0.265-0.817,0.577-2.153,0.933-4.01
  c0.357-1.855,0.79-3.89,1.306-6.105c0.513-2.215,1.188-4.481,2.024-6.797c0.834-2.317,1.838-4.332,3.011-6.045
  c1.173-1.713,2.572-2.984,4.196-3.812c1.624-0.828,3.551-0.88,5.78-0.156c-2.438,7.506-3.875,13.693-4.306,18.563
  c-0.434,4.871-0.174,8.815,0.776,11.834c0.948,3.019,2.417,5.263,4.405,6.73c1.988,1.468,4.169,2.525,6.546,3.174
  c2.377,0.649,4.776,1.04,7.199,1.168c2.421,0.13,4.542,0.367,6.361,0.711c1.817,0.345,3.156,0.964,4.016,1.86
  c0.859,0.895,0.951,2.384,0.275,4.463c-0.507,1.561-1.223,2.56-2.145,3c-0.924,0.438-2.448,0.52-4.575,0.238
  c-0.619-0.118-1.646-0.308-3.08-0.569c-1.436-0.261-3.032-0.595-4.788-1.002c-1.759-0.405-3.633-0.83-5.624-1.272
  c-1.994-0.441-3.869-0.866-5.625-1.272c-1.758-0.406-3.348-0.821-4.771-1.243c-1.425-0.421-2.47-0.74-3.139-0.958
  c-0.121,0.372-0.364,0.991-0.727,1.858c-0.365,0.867-0.594,1.451-0.691,1.747c-1.063,3.271-1.575,6.615-1.536,10.037
  c0.037,3.421,0.175,6.855,0.412,10.299c0.235,3.445,0.378,6.859,0.43,10.243c0.049,3.385-0.457,6.711-1.518,9.98
  c-0.194,0.595-0.449,1.19-0.765,1.785c-0.317,0.595-0.721,1.081-1.211,1.455c-0.492,0.375-1.096,0.589-1.811,0.644
  c-0.717,0.054-1.571-0.285-2.565-1.018c-2.583-1.66-4.164-3.94-4.74-6.838c-0.579-2.898-0.652-6.146-0.223-9.745
  c0.429-3.598,1.149-7.328,2.157-11.189c1.008-3.862,1.807-7.524,2.4-10.987c0.59-3.463,0.746-6.535,0.467-9.213
  c-0.281-2.679-1.488-4.652-3.622-5.921L42.274,56.488c-0.299-0.097-0.642-0.557-1.03-1.382c-0.39-0.824-0.611-1.409-0.662-1.755
  c-0.025-0.171-0.003-0.37,0.069-0.593C40.627,52.585,40.662,52.351,40.759,52.053z"/>
  <path d="M129.316,124.547c-2.337,1.159-4.357,2.206-6.06,3.138c-1.706,0.933-3.342,1.69-4.91,2.27
  c-1.569,0.581-3.208,0.951-4.918,1.11c-1.709,0.161-3.771,0.07-6.183-0.269c-5.216-0.733-8.891-2.665-11.025-5.796
  c-2.133-3.131-2.814-7.444-2.042-12.942c0.299-2.131,0.891-4.307,1.776-6.528c0.883-2.221,2.033-4.39,3.445-6.508
  c1.414-2.118,3.021-4.093,4.822-5.929c1.803-1.834,3.768-3.402,5.896-4.705c2.127-1.302,4.336-2.265,6.625-2.887
  c2.29-0.622,4.642-0.764,7.053-0.425c3.983,0.961,7.012,2.401,9.088,4.323c2.075,1.922,3.525,4.215,4.353,6.875
  c0.827,2.662,1.249,5.553,1.27,8.672c0.018,3.121-0.074,6.325-0.28,9.613c-0.203,3.289-0.339,6.588-0.404,9.895
  c-0.065,3.309,0.327,6.424,1.175,9.345c-0.99,1.749-1.86,2.956-2.611,3.623c-0.752,0.667-1.484,0.692-2.199,0.078
  c-0.715-0.615-1.453-1.977-2.214-4.087C131.212,131.306,130.327,128.351,129.316,124.547z M101.307,113.232
  c-0.45,3.197-0.176,5.625,0.822,7.28c0.996,1.656,3.037,2.7,6.122,3.134c2.3,0.323,4.559,0.227,6.776-0.292
  c2.219-0.517,4.212-1.381,5.984-2.591c1.771-1.209,3.275-2.757,4.513-4.642c1.238-1.885,2.03-4.061,2.376-6.53
  c0.142-1.01,0.369-2.421,0.681-4.237c0.311-1.814,0.455-3.639,0.426-5.474c-0.029-1.834-0.342-3.465-0.941-4.894
  c-0.602-1.428-1.687-2.253-3.256-2.474c-2.917-0.41-5.713-0.044-8.391,1.095c-2.677,1.14-5.073,2.733-7.191,4.78
  c-2.119,2.048-3.877,4.389-5.277,7.023C102.551,108.045,101.669,110.653,101.307,113.232z"/>
  <path d="M151.723,85.482c0.316-1.49,0.917-2.485,1.802-2.986c0.884-0.5,2.158-0.575,3.821-0.221
  l0.859,0.183c-0.023,0.954-0.048,2.057-0.074,3.309c-0.027,1.252,0.054,2.558,0.247,3.916c0.19,1.359,0.487,2.636,0.893,3.829
  c0.405,1.196,0.999,2.205,1.782,3.03c0.483-1.994,1.396-3.821,2.738-5.483c1.341-1.661,2.869-3.074,4.584-4.237
  c1.715-1.163,3.524-2.066,5.428-2.71c1.902-0.643,3.723-0.961,5.458-0.951l1.892,0.402c2.751,0.584,4.97,1.701,6.656,3.347
  c1.686,1.646,2.965,3.595,3.834,5.846c0.87,2.251,1.38,4.712,1.531,7.379c0.152,2.669,0.136,5.346-0.044,8.032
  c-0.183,2.688-0.489,5.258-0.92,7.711c-0.432,2.455-0.831,4.541-1.196,6.26l-6.275-1.334c0.387-3.512,0.657-6.898,0.812-10.16
  c0.096-1.297,0.149-2.678,0.162-4.144c0.011-1.465-0.023-2.85-0.104-4.156c-0.082-1.305-0.212-2.53-0.387-3.676
  c-0.176-1.145-0.442-2.145-0.799-3c-0.181-0.277-0.415-0.656-0.703-1.138c-0.288-0.479-0.589-0.963-0.904-1.45
  c-0.316-0.485-0.615-0.909-0.899-1.27c-0.283-0.359-0.454-0.545-0.51-0.557c-1.621-0.824-3.182-0.812-4.681,0.039
  c-1.499,0.85-2.935,2.116-4.312,3.8c-1.377,1.684-2.622,3.666-3.734,5.945c-1.113,2.279-2.106,4.48-2.975,6.601
  c-0.871,2.122-1.566,3.98-2.085,5.577s-0.844,2.561-0.974,2.893c-1.652,0.727-3.063,0.741-4.232,0.044
  c-1.17-0.698-2.167-1.854-2.993-3.466c-0.825-1.613-1.462-3.546-1.912-5.798c-0.451-2.252-0.802-4.618-1.053-7.097
  c-0.251-2.48-0.428-4.958-0.531-7.437C151.822,89.876,151.754,87.586,151.723,85.482z"/>
  <path d="M238.093,90.473c0.117-0.117,0.22-0.277,0.308-0.483c0.088-0.205,0.132-0.365,0.132-0.483
  c0-1.347-0.806-2.241-2.417-2.681c-1.612-0.439-3.619-0.644-6.021-0.615c-2.403,0.03-4.996,0.162-7.778,0.396
  c-2.784,0.235-5.376,0.338-7.778,0.308c-2.403-0.029-4.41-0.321-6.021-0.879c-1.612-0.556-2.417-1.596-2.417-3.12
  c0-0.996,0.073-1.743,0.22-2.241c0.146-0.497,0.365-0.849,0.659-1.055c0.292-0.205,0.659-0.321,1.099-0.352
  c0.439-0.029,0.923-0.044,1.45-0.044h2.285c0.703,0.059,1.846,0.132,3.428,0.22s3.369,0.176,5.361,0.264
  c1.991,0.088,4.087,0.206,6.284,0.352c2.197,0.147,4.276,0.279,6.24,0.396c1.962,0.118,3.72,0.235,5.273,0.352
  c1.552,0.118,2.738,0.206,3.56,0.264c1.055,0.646,1.947,1.23,2.681,1.758c0.732,0.527,1.318,1.055,1.758,1.582
  s0.761,1.099,0.967,1.714c0.205,0.615,0.308,1.393,0.308,2.329c0,1.993-0.411,3.941-1.23,5.845
  c-0.821,1.905-1.861,3.81-3.12,5.713c-1.261,1.905-2.696,3.81-4.307,5.713c-1.612,1.905-3.179,3.794-4.702,5.669
  c-1.524,1.876-2.959,3.75-4.307,5.625c-1.349,1.876-2.403,3.691-3.164,5.449h22.588c1.699,0,2.782,0.323,3.252,0.967
  c0.468,0.646,0.703,1.553,0.703,2.725c0,0.821-0.088,1.582-0.264,2.285s-0.791,1.23-1.846,1.582
  c-2.813,0.235-5.655,0.586-8.525,1.055c-2.872,0.47-5.743,0.938-8.613,1.406c-2.872,0.47-5.757,0.879-8.657,1.23
  s-5.787,0.527-8.657,0.527c0-4.219,0.659-8.275,1.978-12.173c1.318-3.896,3.017-7.66,5.098-11.294
  c2.079-3.632,4.364-7.148,6.855-10.547C233.244,96.831,235.689,93.579,238.093,90.473z"/>
</g>
<g class="tanzblick-blick">
  <path d="M286.425,68.427c5.488,0,10.276,2.142,14.364,6.426c4.087,4.284,6.132,9.786,6.132,16.506
  c0,6.72-2.1,12.348-6.3,16.884c-4.2,4.536-8.975,6.804-14.322,6.804c-5.348,0-9.786-2.211-13.314-6.636v1.964c0,2.2-1.8,4-4,4
  h-4.6c-2.2,0-4-1.8-4-4V56.047c0-2.2,1.8-4,4-4h4.6c2.2,0,4,1.8,4,4v18.176C276.457,70.359,280.936,68.427,286.425,68.427z
   M272.817,91.821c0,3.668,1.021,6.665,3.066,8.988c2.043,2.324,4.521,3.486,7.434,3.486c2.911,0,5.46-1.162,7.644-3.486
  c2.184-2.323,3.276-5.305,3.276-8.946c0-3.639-1.064-6.691-3.192-9.156c-2.129-2.463-4.676-3.696-7.644-3.696
  c-2.969,0-5.475,1.218-7.518,3.654C273.838,85.101,272.817,88.154,272.817,91.821z"/>
  <path d="M325.736,110.375c0,2.2-1.8,4-4,4h-4.6c-2.2,0-4-1.8-4-4V56.047c0-2.2,1.8-4,4-4h4.6c2.2,0,4,1.8,4,4
  V110.375z"/>
  <path d="M335.521,63.429c-1.428-1.428-2.142-3.178-2.142-5.25c0-2.071,0.714-3.822,2.142-5.25
  c1.428-1.428,3.177-2.142,5.25-2.142c2.071,0,3.822,0.714,5.25,2.142c1.428,1.428,2.142,3.179,2.142,5.25
  c0,2.072-0.714,3.822-2.142,5.25c-1.428,1.428-3.179,2.142-5.25,2.142C338.699,65.571,336.949,64.857,335.521,63.429z
   M347.071,110.375c0,2.2-1.8,4-4,4h-4.6c-2.2,0-4-1.8-4-4V73.183c0-2.2,1.8-4,4-4h4.6c2.2,0,4,1.8,4,4V110.375z"/>
  <path d="M377.479,103.875c4.2,0,7.98-2.1,11.34-6.3l4.817,5.412c1.462,1.643,1.218,4.066-0.543,5.384
  c0,0-8.922,6.675-15.698,6.675c-6.776,0-12.502-2.142-17.178-6.426c-4.676-4.284-7.014-9.883-7.014-16.8
  c0-6.916,2.365-12.543,7.098-16.884c4.731-4.339,10.345-6.51,16.842-6.51c3.248,0,6.538,0.672,9.87,2.016
  c3.331,1.344,6.258,3.333,8.778,5.964l-4.123,5.391c-1.336,1.748-3.733,1.936-5.327,0.419c0,0-0.337-0.321-2.437-1.274
  c-2.1-0.952-4.187-1.428-6.258-1.428c-3.305,0-6.146,1.079-8.526,3.234c-2.381,2.156-3.57,5.153-3.57,8.988
  c0,3.836,1.189,6.819,3.57,8.946C371.5,102.812,374.286,103.875,377.479,103.875z"/>
  <path d="M414.101,110.375c0,2.2-1.8,4-4,4h-4.6c-2.2,0-4-1.8-4-4V56.047c0-2.2,1.8-4,4-4h4.6c2.2,0,4,1.8,4,4
  v24.004c0,2.2,1.231,2.688,2.737,1.083l8.554-9.118c1.505-1.604,4.537-2.917,6.737-2.917h7.876c2.2,0,2.767,1.312,1.26,2.914
  l-11.739,12.484c-1.507,1.603-1.745,4.414-0.529,6.247l13.469,20.298c1.216,1.833,0.412,3.333-1.789,3.333h-6.952
  c-2.2,0-4.997-1.499-6.215-3.331l-7.078-10.643c-1.218-1.832-3.141-2.367-4.273-1.188s-2.058,3.942-2.058,6.142V110.375z"/>

      <!--path d="M286.425,68.427c5.488,0,10.276,2.142,14.364,6.426c4.087,4.284,6.132,9.786,6.132,16.506
  c0,6.72-2.1,12.348-6.3,16.884c-4.2,4.536-8.975,6.804-14.322,6.804c-5.348,0-9.786-2.211-13.314-6.636v5.964h-12.6V52.047h12.6
  v22.176C276.457,70.359,280.936,68.427,286.425,68.427z M272.817,91.821c0,3.668,1.021,6.665,3.066,8.988
  c2.043,2.324,4.521,3.486,7.434,3.486c2.911,0,5.46-1.162,7.644-3.486c2.184-2.323,3.276-5.305,3.276-8.946
  c0-3.639-1.064-6.691-3.192-9.156c-2.129-2.463-4.676-3.696-7.644-3.696c-2.969,0-5.475,1.218-7.518,3.654
  C273.838,85.101,272.817,88.154,272.817,91.821z"/>
  <path d="M325.736,114.375h-12.6V52.047h12.6V114.375z"/>
  <path d="M335.521,63.429c-1.428-1.428-2.142-3.178-2.142-5.25c0-2.071,0.714-3.822,2.142-5.25
  c1.428-1.428,3.177-2.142,5.25-2.142c2.071,0,3.822,0.714,5.25,2.142c1.428,1.428,2.142,3.179,2.142,5.25
  c0,2.072-0.714,3.822-2.142,5.25c-1.428,1.428-3.179,2.142-5.25,2.142C338.699,65.571,336.949,64.857,335.521,63.429z
   M347.071,114.375h-12.6V69.183h12.6V114.375z"/>
  <path d="M377.479,103.875c4.2,0,7.98-2.1,11.34-6.3l7.476,8.4c-5.825,6.048-12.125,9.072-18.9,9.072
  c-6.776,0-12.502-2.142-17.178-6.426c-4.676-4.284-7.014-9.883-7.014-16.8c0-6.916,2.365-12.543,7.098-16.884
  c4.731-4.339,10.345-6.51,16.842-6.51c3.248,0,6.538,0.672,9.87,2.016c3.331,1.344,6.258,3.333,8.778,5.964l-6.552,8.568
  c-1.457-1.735-3.234-3.079-5.334-4.032c-2.1-0.952-4.187-1.428-6.258-1.428c-3.305,0-6.146,1.079-8.526,3.234
  c-2.381,2.156-3.57,5.153-3.57,8.988c0,3.836,1.189,6.819,3.57,8.946C371.5,102.812,374.286,103.875,377.479,103.875z"/>
  <path d="M414.101,114.375h-12.6V52.047h12.6v32.004l14.028-14.952h15.876l-17.22,18.312l17.892,26.964h-14.952
  l-11.508-17.304l-4.116,4.284V114.375z"/-->
</g>
</svg>
